<?xml version="1.0" encoding="UTF-8"?>
<svg id="Layer_1" data-name="Layer 1" xmlns="http://www.w3.org/2000/svg" viewBox="0 0 80 69.25">
  <defs>
    <style>
      .cls-1 {
        fill: #00e;
        stroke-width: 0px;
      }
    </style>
  </defs>
  <path id="path3675" class="cls-1" d="m1.46,34.76l19.18,33.57,38.66.18,19.49-33.4L59.61,1.54l-38.66-.17L1.46,34.76Zm18.76,34.93c-.23,0-.45-.14-.56-.34L.09,35.09c-.12-.21-.12-.47,0-.68L19.97.34C20.09.13,20.32,0,20.56,0l39.45.18c.18,0,.47.13.58.34l19.57,34.25c.12.21.12.47,0,.68l-19.88,34.07c-.12.21-.35.34-.59.34l-39.44-.18s-.01,0-.02,0"/>
  <path id="path3679" class="cls-1" d="m34.02,26.65c-.1,0-.21.02-.31.07l-.48.25s-.08.04-.08.04c-.31.16-.43.54-.27.84.11.21.32.33.53.34.1,0,.21-.02.31-.07l.56-.29c.31-.16.43-.54.27-.84-.11-.21-.32-.33-.53-.34"/>
  <path id="path3683" class="cls-1" d="m32.81,49.44l-.54-.32c-.09-.06-.2-.09-.3-.09-.22,0-.44.1-.56.3-.18.3-.08.68.21.86l.54.32c.09.06.2.09.3.09.22,0,.44-.1.56-.3.18-.3.08-.68-.21-.86"/>
  <path id="path3687" class="cls-1" d="m30.14,28.67c-.1,0-.21.02-.31.07l-.56.29c-.31.16-.43.54-.27.84.11.21.32.33.53.34.1,0,.21-.02.31-.07l.56-.29c.31-.16.43-.54.27-.84-.11-.21-.32-.33-.53-.34"/>
  <path id="path3691" class="cls-1" d="m40.3,53.97l-.54-.32c-.09-.06-.2-.09-.3-.09-.22,0-.44.1-.56.3-.18.3-.08.68.21.86l.54.32c.09.06.2.09.3.09.22,0,.44-.1.56-.3.18-.3.08-.68-.21-.86"/>
  <path id="path3695" class="cls-1" d="m36.55,51.71l-.54-.32c-.09-.06-.2-.09-.3-.09-.22,0-.44.1-.56.3-.18.3-.08.68.21.86l.05.03h0s0,0,0,0h0s.02.01.02.01h0s0,0,0,0h0s0,0,0,0h0s0,0,0,0h0s0,0,0,0h0s0,0,.01,0h0c.16.09.43.26.43.26.09.06.2.09.3.09.22,0,.44-.1.56-.3.18-.29.08-.68-.21-.86"/>
  <path id="path3699" class="cls-1" d="m29.06,47.18l-.54-.32c-.09-.06-.2-.09-.3-.09-.22,0-.44.1-.56.3-.18.3-.08.68.21.86l.19.11h0s0,0,0,0c0,0,0,0,0,0h0c.15.09.34.21.34.21.09.06.2.09.3.09.22,0,.44-.1.56-.3.18-.3.08-.68-.21-.86"/>
  <path id="path3703" class="cls-1" d="m37.91,24.64c-.1,0-.21.02-.31.07,0,0-.05.03-.12.06h0s0,0,0,0l-.44.23c-.31.16-.42.54-.27.84.11.21.31.33.53.34.1,0,.21-.02.31-.07l.56-.29c.31-.16.43-.54.27-.84-.11-.21-.32-.33-.53-.34"/>
  <path id="path3707" class="cls-1" d="m21.57,42.66l-.54-.32c-.09-.06-.2-.09-.3-.09-.22,0-.44.1-.56.3-.18.3-.08.68.21.86l.54.32c.09.06.2.09.3.09.22,0,.44-.1.56-.3.18-.3.08-.68-.21-.86"/>
  <path id="path3711" class="cls-1" d="m26.42,30.61c-.1,0-.21.02-.31.07l-.56.29c-.31.16-.42.54-.27.84.11.21.31.33.53.34.1,0,.21-.02.31-.07l.56-.29c.31-.16.43-.54.27-.84-.11-.21-.32-.33-.53-.34"/>
  <path id="path3715" class="cls-1" d="m17.09,39.94l-.54-.32c-.09-.06-.2-.09-.3-.09-.22,0-.44.1-.56.3-.18.3-.08.68.21.86,0,0,.06.04.15.09h0s0,0,0,0h0l.39.23c.09.06.2.09.3.09.22,0,.44-.1.56-.3.18-.3.08-.68-.21-.86"/>
  <path id="path3719" class="cls-1" d="m13.42,38.07l-.54-.32c-.09-.06-.2-.09-.3-.09-.22,0-.44.1-.56.3-.18.3-.08.68.21.86,0,0,.06.04.15.09h0s0,0,0,0h0l.39.23c.09.06.2.09.3.09.22,0,.44-.1.56-.3.18-.3.08-.68-.21-.86"/>
  <path id="path3723" class="cls-1" d="m18.93,34.44c-.1,0-.21.02-.31.07l-.38.2h0s0,0,0,0c-.1.05-.17.09-.17.09-.31.16-.43.54-.27.84.11.21.31.33.53.34.1,0,.21-.02.31-.07l.56-.29c.31-.16.43-.54.27-.84-.11-.21-.32-.33-.53-.34"/>
  <path id="path3727" class="cls-1" d="m15.56,36.2c-.1,0-.21.02-.31.07l-.38.2h0s0,0,0,0c-.1.05-.17.09-.17.09-.31.16-.43.54-.27.84.11.21.32.33.53.34.1,0,.21-.02.31-.07l.56-.29c.31-.16.43-.54.27-.84-.11-.21-.32-.33-.53-.34"/>
  <path id="path3731" class="cls-1" d="m25.32,44.92l-.54-.32c-.09-.06-.2-.09-.3-.09-.22,0-.44.1-.56.3-.18.3-.08.68.21.86l.05.03h0s0,0,0,0h0s0,0,0,0c.14.09.47.28.47.28.09.06.2.09.3.09.22,0,.44-.1.56-.3.18-.3.08-.68-.21-.86"/>
  <path id="path3735" class="cls-1" d="m22.69,32.52c-.1,0-.21.02-.31.07,0,0-.11.06-.24.12h0s0,0,0,0l-.31.16c-.31.16-.42.54-.27.84.11.21.31.33.53.34.1,0,.21-.02.31-.07l.56-.29c.31-.16.43-.54.27-.84-.11-.21-.32-.33-.53-.34"/>
  <path id="path3739" class="cls-1" d="m41.79,22.63c-.1,0-.21.02-.31.07l-.56.29c-.31.16-.42.54-.27.84.11.21.31.33.53.34.1,0,.21-.02.31-.07l.56-.29c.31-.16.43-.54.27-.84-.11-.21-.32-.33-.53-.34"/>
  <path id="path3743" class="cls-1" d="m53.6,17.14h0,0l-.62-.02c-.08,0-.16.01-.23.04-.05-.02-.11-.04-.17-.05h-.14c-.19.01-.37.11-.48.28l-.34.53c-.19.29-.1.68.19.86,0,0,0,0,.01,0,.29.18.67.09.85-.2,0,0,.07-.11.15-.23l.78-1.21h0"/>
  <path id="path3747" class="cls-1" d="m49.56,18.6c-.1,0-.21.02-.31.07l-.56.29c-.31.16-.43.54-.27.84.11.21.32.33.53.34.1,0,.21-.02.31-.07l.56-.29c.31-.16.43-.54.27-.84-.11-.21-.32-.33-.53-.34"/>
  <path id="path3751" class="cls-1" d="m47.92,58.58l-.54-.32c-.09-.06-.2-.09-.3-.09-.22,0-.44.1-.56.3-.18.3-.08.68.21.86l.54.32c.09.06.2.09.3.09.22,0,.44-.1.56-.3.18-.3.08-.68-.21-.86"/>
  <path id="path3755" class="cls-1" d="m50.4,60.51l-.54-.32c-.09-.06-.2-.09-.3-.09-.22,0-.44.1-.56.3-.18.3-.08.68.21.86l.54.32c.09.06.2.09.3.09.22,0,.44-.1.56-.3.18-.3.08-.68-.21-.86"/>
  <path id="path3759" class="cls-1" d="m44.15,56.34l-.54-.32c-.09-.06-.2-.09-.3-.09-.22,0-.44.1-.56.3-.18.3-.09.68.21.86l.54.32c.09.06.2.09.3.09.22,0,.44-.1.56-.3.18-.3.08-.68-.21-.86"/>
  <path id="path3763" class="cls-1" d="m45.67,20.61c-.1,0-.21.02-.31.07l-.56.29c-.31.16-.42.54-.27.84.11.21.31.33.53.34.1,0,.21-.02.31-.07l.56-.29c.31-.16.43-.54.27-.84-.11-.21-.32-.33-.53-.34"/>
  <path id="path3767" class="cls-1" d="m50.66,36.26c-.06.09-.09.19-.1.3l-.03.54c0,.05,0,.09,0,.09-.02.34.24.64.59.66.23.01.44-.1.56-.29.06-.09.09-.19.1-.3l.03-.62c.02-.34-.25-.64-.59-.66-.23-.01-.44.1-.56.29"/>
  <path id="path3771" class="cls-1" d="m50.43,40.54c-.06.09-.09.19-.1.3l-.03.63c-.02.34.25.64.59.66.23.01.44-.1.56-.29.06-.09.09-.19.1-.3l.03-.62c.02-.34-.25-.64-.59-.66-.23-.01-.44.1-.56.29"/>
  <path id="path3775" class="cls-1" d="m50.88,32.08c-.06.09-.09.19-.1.3,0,0,0,.05,0,.13h0s-.03.5-.03.5c-.02.34.25.64.59.65.23.01.44-.1.56-.29.06-.09.09-.19.1-.3l.03-.62c.02-.34-.25-.64-.59-.66-.23-.01-.44.1-.56.29"/>
  <path id="path3779" class="cls-1" d="m50.2,44.73c-.06.09-.09.19-.1.3l-.03.63c-.02.35.25.64.59.66.23.01.44-.1.56-.29.06-.09.09-.19.1-.3l.03-.62c.02-.34-.25-.64-.59-.66-.23-.01-.44.1-.56.29"/>
  <path id="path3783" class="cls-1" d="m49.75,52.91c-.06.09-.09.19-.1.3l-.02.43h0c0,.11-.01.2-.01.2-.02.34.24.64.59.66.23.01.44-.1.56-.29.06-.09.09-.19.1-.3l.03-.62c.02-.35-.25-.64-.59-.66-.23-.01-.44.1-.56.29"/>
  <path id="path3787" class="cls-1" d="m49.64,57.2c-.06.09-.09.19-.1.3l-.02.43h0c0,.11-.01.2-.01.2-.02.34.24.64.59.66.23.01.44-.1.56-.29.06-.09.09-.19.1-.3l.03-.62c.02-.35-.25-.64-.59-.66-.23-.01-.44.1-.56.29"/>
  <path id="path3791" class="cls-1" d="m49.97,48.92c-.06.09-.09.19-.1.3,0,0,0,.13-.01.27h0s-.02.36-.02.36c-.02.34.25.64.59.66.23.01.44-.1.56-.29.06-.09.09-.19.1-.3l.03-.62c.02-.34-.25-.64-.59-.66-.23-.01-.44.1-.56.29"/>
  <path id="path3795" class="cls-1" d="m51.11,27.96c-.06.09-.09.19-.1.3l-.03.63c-.02.34.25.64.59.66.23.01.44-.1.56-.29.06-.09.09-.19.1-.3l.03-.62c.02-.34-.25-.64-.59-.66-.23-.01-.44.1-.56.29"/>
  <path id="path3799" class="cls-1" d="m51.55,19.99c-.06.09-.09.19-.1.3l-.03.63c-.02.35.24.64.59.66.23.01.44-.1.56-.29.06-.09.09-.19.1-.3l.03-.62c.02-.34-.25-.64-.59-.66-.23-.01-.44.1-.56.29"/>
  <path id="path3803" class="cls-1" d="m51.33,23.91c-.06.09-.09.19-.1.3l-.03.63c-.02.34.25.64.59.66.23.01.44-.1.56-.29.06-.09.09-.19.1-.3l.03-.62c.02-.34-.25-.64-.59-.66-.23-.01-.44.1-.56.29"/>
  <path id="path3807" class="cls-1" d="m51.13,62.19l-.92-1,28.9-26.58.92,1-28.9,26.58Z"/>
  <path id="path3811" class="cls-1" d="m20.41,69.66l-.32-1.32,30.42-7.32.32,1.32-30.42,7.32Z"/>
  <path id="path3815" class="cls-1" d="m59.26,69.7l-9.02-7.49.87-1.05,9.02,7.5-.87,1.05Z"/>
  <path id="path3819" class="cls-1" d="m52.83,17.26L20.26,1.29l.6-1.22,32.57,15.97-.6,1.22Z"/>
  <path id="path3823" class="cls-1" d="m12.34,38.31l-1.32-.31L19.89.52l1.32.31-8.88,37.47Z"/>
  <path id="path3827" class="cls-1" d="m53.75,16.93l-1.24-.54L59.38.59l1.25.54-6.87,15.79Z"/>
  <path id="path3831" class="cls-1" d="m79.18,35.66l-26.44-18.45.78-1.11,26.44,18.45-.78,1.11Z"/>
  <path id="path3835" class="cls-1" d="m11.48,38.8L.48,35.4l.4-1.3,11,3.4-.4,1.3Z"/>
  <path id="path3839" class="cls-1" d="m19.59,69.18l-8.57-30.85,1.31-.36,8.57,30.85-1.31.36Z"/>
</svg>