<svg version="1.1" xmlns="http://www.w3.org/2000/svg" viewBox="80 100 800 40">
<style type="text/css">
	.shape {
		fill:#0000EE;
	}
</style>
<path class="shape" d="M683.6,106.2c-3.4-3.5-7.7-5.3-12.8-5.3c-3.7,0-6.9,0.9-9.7,2.8l1.1,0.9c0.2,0.2,0.4,0.4,0.7,0.7
	c2.3-1.4,4.9-2.2,7.9-2.2c4.4,0,8.1,1.6,10.9,4.7c2.9,3.1,4.3,6.9,4.3,11.4c0,4.5-1.4,8.3-4.3,11.4c-2.9,3.1-6.5,4.6-10.9,4.6
	c-4.4,0-8.1-1.5-11-4.6c-2.9-3.1-4.4-6.9-4.4-11.4c0-2.9,0.6-5.5,1.8-7.8l-2.2-1.3c-1.5,2.7-2.3,5.7-2.3,9.1c0,5.1,1.7,9.5,5.2,13
	c3.4,3.6,7.7,5.3,12.8,5.3c5.1,0,9.3-1.8,12.8-5.3c3.4-3.5,5.2-7.9,5.2-13C688.7,114.1,687,109.7,683.6,106.2"/>
<path class="shape" d="M597.1,103.6c-2.1-1.6-4.7-2.4-7.8-2.4c-3.1,0-6,0.1-8.7,0.4V137h2.5v-33.4
	c2-0.1,3.7-0.2,5.2-0.2c2.8,0,5,0.6,6.7,1.9c1.7,1.2,2.6,3.2,2.6,6s-1.2,5-3.6,6.7c-0.8,0.6-2.2,1.2-3.2,1.6v1.9
	c1.5-0.5,3.9-1.4,5.2-2.4c2.9-2.1,4.3-4.8,4.3-8.1C600.3,107.7,599.2,105.3,597.1,103.6"/>
<path class="shape" d="M705.6,133c0,5.3-2.6,9.9-7.9,13.8l1.2,1.6c1.9-1.4,3.5-2.7,4.7-3.9c1.2-1.2,2.3-3,3.2-5.3
	c0.9-2.3,1.4-4.9,1.4-7.8v-30h-2.5V133z"/>
<path class="shape" d="M730.1,118.7h12.7v-2.1h-12.7v-13h14.1v-2.2h-16.6V137h17.2v-2.3h-14.7V118.7z"/>
<path class="shape" d="M777.2,135.3c-4.2,0-7.9-1.6-11.1-4.7c-3.2-3.1-4.8-7-4.8-11.4c0-4.5,1.4-8.3,4.1-11.4
	c2.8-3.1,6.2-4.6,10.2-4.6c4.1,0,8,0.6,11.8,1.8l0.7-2.1c-3.9-1.3-8-1.9-12.1-1.9c-5.1,0-9.3,1.8-12.5,5.3
	c-3.2,3.5-4.9,7.9-4.9,13.1c0,5.2,1.9,9.6,5.6,13.1c3.7,3.5,8,5.3,12.9,5.3c4.9,0,8.7-0.8,11.4-2.3l-0.8-1.8
	C784.9,134.7,781.4,135.3,777.2,135.3"/>
<path class="shape" d="M800.8,103.7h12.1V137h2.5v-33.4h12.1v-2.2h-26.6V103.7z"/>
<path class="shape" d="M629.4,121.7c1.6-1.1,3-2.6,4.2-4.4c1.2-1.8,1.9-3.8,1.9-6c0-3.2-1.1-5.7-3.3-7.4
	c-2.2-1.7-5-2.6-8.3-2.6c-2.2,0-4.9,0.1-8,0.4V137h2.5v-33.4c2-0.1,3.7-0.2,5.2-0.2c2.7,0,5,0.7,6.7,2c1.7,1.3,2.6,3.2,2.6,5.8
	s-0.8,4.7-2.5,6.6c-1.6,1.9-2.5,2.6-3.9,2.6l-0.4,0.6l1.1,1.8c0,0,7.1,9.6,8.3,10.9c1.3,1.4,2.5,2.3,3.8,2.9c1.3,0.6,2.9,0.9,5,0.9
	l0.1-1.7c-2.5-0.3-4.7-1.5-6.8-3.7C636.4,130.9,633.7,127.5,629.4,121.7"/>
<path class="shape" d="M473.7,106.8c-3.4-3.6-7.7-5.3-12.8-5.3c-3.7,0-6.9,0.9-9.7,2.8l1.1,0.9c0.2,0.2,0.4,0.4,0.7,0.7
	c2.3-1.4,4.9-2.2,7.9-2.2c4.4,0,8.1,1.6,10.9,4.7c2.9,3.1,4.3,6.9,4.3,11.4c0,4.5-1.4,8.3-4.3,11.4c-2.9,3.1-6.5,4.6-10.9,4.6
	c-4.4,0-8.1-1.5-11-4.6c-2.9-3.1-4.4-6.9-4.4-11.4c0-2.9,0.6-5.5,1.8-7.8l-2.2-1.3c-1.5,2.7-2.3,5.7-2.3,9.1c0,5.1,1.7,9.5,5.2,13
	c3.4,3.6,7.7,5.3,12.8,5.3c5.1,0,9.3-1.8,12.8-5.3c3.4-3.5,5.2-7.9,5.2-13C478.9,114.7,477.2,110.4,473.7,106.8"/>
<path class="shape" d="M505.4,121.3c1.6-1.1,3-2.6,4.2-4.4c1.2-1.8,1.9-3.8,1.9-6c0-3.2-1.1-5.7-3.3-7.4
	c-2.2-1.7-5-2.6-8.3-2.6c-2.2,0-4.9,0.1-8,0.4v35.5h2.5v-33.4c2-0.1,3.7-0.2,5.2-0.2c2.7,0,5,0.7,6.7,2c1.7,1.3,2.6,3.2,2.6,5.8
	s-0.8,4.7-2.5,6.6c-1.6,1.9-2.5,2.6-3.9,2.6l-0.4,0.6l1.1,1.8c0,0,7,9.6,8.3,10.9c1.3,1.4,2.5,2.3,3.8,2.9c1.3,0.6,2.9,0.9,5,0.9
	l0.1-1.7c-2.5-0.3-4.7-1.5-6.8-3.7C512.5,130.6,509.8,127.1,505.4,121.3"/>
<path class="shape" d="M334.2,100.9h-1.5l-12.3,26.3c-0.7,1.5-1.2,2.6-1.5,3.4c0-0.1-0.4-1.3-1.3-3.5l-11.1-26.3H305
	l-5.8,35.8h2.5l4.1-26.9c0.1-0.4,0.1-0.9,0.2-1.5c0.1-0.6,0.1-1.1,0.2-1.5c0.1-0.4,0.1-0.6,0.1-0.6c0.4,1.3,0.9,2.5,1.3,3.5
	l10.4,25.2h1.5l11.7-25.1l1.6-3.6c0,0.6,0.1,1.8,0.4,3.6l3.9,27.1h2.6L334.2,100.9z"/>
<path class="shape" d="M358.6,118.4h12.7v-2.1h-12.7v-13h14.1v-2.2h-16.6v35.6h17.2v-2.3h-14.7V118.4z"/>
<path class="shape" d="M423.1,100.9l-12.3,26.3c-0.7,1.5-1.2,2.6-1.5,3.4c0-0.1-0.4-1.3-1.3-3.5l-11.1-26.3h-1.5
	l-5.8,35.8h2.5l4.1-26.9c0.1-0.4,0.1-0.9,0.2-1.5c0.1-0.6,0.1-1.1,0.2-1.5c0.1-0.4,0.1-0.6,0.1-0.6c0.4,1.3,0.9,2.5,1.3,3.5
	l10.4,25.2h1.5l11.7-25.1l1.6-3.6c0,0.6,0.1,1.8,0.4,3.6l3.9,27.1h2.6l-5.4-35.8H423.1z"/>
<path class="shape" d="M538,136.7h2.5v-12.6l13.4-23h-2.9l-10.4,17.7c-0.7,1.2-1.2,2-1.4,2.5c-0.1-0.1-0.6-1-1.4-2.6
	l-10.4-17.7h-3L538,124V136.7z"/>
<path class="shape" d="M107.7,134.7H91.3v-33.3h-2.5V137h18.9V134.7z"/>
<path class="shape" d="M184.3,137.6c4.9,0,8.7-0.8,11.4-2.3l-0.8-1.8c-2.8,1.2-6.3,1.8-10.5,1.8
	c-4.2,0-7.9-1.6-11.1-4.7c-3.2-3.1-4.8-7-4.8-11.4c0-4.5,1.4-8.3,4.1-11.4c2.8-3.1,6.2-4.6,10.2-4.6c4.1,0,8,0.6,11.8,1.8l0.7-2.1
	c-3.9-1.3-8-1.9-12.1-1.9c-5.1,0-9.3,1.8-12.5,5.3c-3.2,3.5-4.9,7.9-4.9,13.1c0,5.2,1.9,9.6,5.6,13.1
	C175.1,135.8,179.4,137.6,184.3,137.6"/>
<path class="shape" d="M271.8,134.7h-16.4v-33.3h-2.5V137h18.9V134.7z"/>
<path class="shape" d="M215.7,124.7l0.9-2.1l5.5-13.2c0.4-1.1,0.9-2.5,1.5-4.1c0.3,0.7,0.8,2.1,1.6,4.2l5.4,13.1l6,14.5
	h2.8l-15-35.8H223L208.1,137h2.6L215.7,124.7z"/>
<path class="shape" d="M230.7,120.8h-8l-0.8,2.1h9.7"/>
<path class="shape" d="M148.6,106.2c-3.4-3.5-7.7-5.3-12.8-5.3c-3.7,0-6.9,0.9-9.7,2.8l1.1,0.9c0.2,0.2,0.4,0.4,0.7,0.7
	c2.3-1.4,4.9-2.2,7.9-2.2c4.4,0,8.1,1.6,10.9,4.7c2.9,3.1,4.3,6.9,4.3,11.4c0,4.5-1.4,8.3-4.3,11.4c-2.9,3.1-6.5,4.6-10.9,4.6
	c-4.4,0-8.1-1.5-11-4.6c-2.9-3.1-4.4-6.9-4.4-11.4c0-2.9,0.6-5.5,1.8-7.8l-2.2-1.3c-1.5,2.7-2.3,5.7-2.3,9.1c0,5.1,1.7,9.5,5.2,13
	c3.4,3.6,7.7,5.3,12.8,5.3c5.1,0,9.3-1.8,12.8-5.3c3.4-3.5,5.2-7.9,5.2-13C153.8,114.1,152.1,109.7,148.6,106.2"/>
</svg>
