<?xml version="1.0" encoding="utf-8"?>
<!-- Generator: Adobe Illustrator 28.0.0, SVG Export Plug-In . SVG Version: 6.00 Build 0)  -->
<svg version="1.1"
	 id="svg3655" xmlns:dc="http://purl.org/dc/elements/1.1/" xmlns:cc="http://creativecommons.org/ns#" xmlns:svg="http://www.w3.org/2000/svg" xmlns:rdf="http://www.w3.org/1999/02/22-rdf-syntax-ns#"
	 xmlns="http://www.w3.org/2000/svg" xmlns:xlink="http://www.w3.org/1999/xlink" x="0px" y="0px" viewBox="0 0 990 161.2"
	 style="enable-background:new 0 0 990 161.2;" xml:space="preserve">
<style type="text/css">
	.st0{fill:none;}
	.st1{fill:#0000EE;}
</style>
<rect class="st0" width="990" height="161.2"/>
<path id="path3675" class="st1" d="M824.5,55.3l19.2,33.6l38.7,0.2l19.5-33.4l-19.2-33.6L844,21.9L824.5,55.3z M843.3,90.3
	c-0.2,0-0.4-0.1-0.6-0.3l-19.6-34.3c-0.1-0.2-0.1-0.5,0-0.7L843,20.9c0.1-0.2,0.3-0.3,0.6-0.3l39.4,0.2c0.2,0,0.5,0.1,0.6,0.3
	l19.6,34.2c0.1,0.2,0.1,0.5,0,0.7l-19.9,34.1c-0.1,0.2-0.3,0.3-0.6,0.3L843.3,90.3C843.3,90.3,843.3,90.3,843.3,90.3"/>
<path id="path3679" class="st1" d="M857.1,47.2c-0.1,0-0.2,0-0.3,0.1l-0.5,0.2c0,0-0.1,0-0.1,0c-0.3,0.2-0.4,0.5-0.3,0.8
	c0.1,0.2,0.3,0.3,0.5,0.3c0.1,0,0.2,0,0.3-0.1l0.6-0.3c0.3-0.2,0.4-0.5,0.3-0.8C857.5,47.4,857.3,47.2,857.1,47.2"/>
<path id="path3683" class="st1" d="M855.9,70l-0.5-0.3c-0.1-0.1-0.2-0.1-0.3-0.1c-0.2,0-0.4,0.1-0.6,0.3c-0.2,0.3-0.1,0.7,0.2,0.9
	l0.5,0.3c0.1,0.1,0.2,0.1,0.3,0.1c0.2,0,0.4-0.1,0.6-0.3C856.3,70.6,856.2,70.2,855.9,70"/>
<path id="path3687" class="st1" d="M853.2,49.3c-0.1,0-0.2,0-0.3,0.1l-0.6,0.3c-0.3,0.2-0.4,0.5-0.3,0.8c0.1,0.2,0.3,0.3,0.5,0.3
	c0.1,0,0.2,0,0.3-0.1l0.6-0.3c0.3-0.2,0.4-0.5,0.3-0.8C853.6,49.4,853.4,49.3,853.2,49.3"/>
<path id="path3691" class="st1" d="M863.4,74.6l-0.5-0.3c-0.1-0.1-0.2-0.1-0.3-0.1c-0.2,0-0.4,0.1-0.6,0.3c-0.2,0.3-0.1,0.7,0.2,0.9
	l0.5,0.3c0.1,0.1,0.2,0.1,0.3,0.1c0.2,0,0.4-0.1,0.6-0.3C863.8,75.1,863.7,74.7,863.4,74.6"/>
<path id="path3695" class="st1" d="M859.6,72.3l-0.5-0.3c-0.1-0.1-0.2-0.1-0.3-0.1c-0.2,0-0.4,0.1-0.6,0.3c-0.2,0.3-0.1,0.7,0.2,0.9
	l0.1,0l0,0l0,0h0v0l0,0l0,0h0l0,0c0,0,0,0,0,0l0,0l0,0l0,0h0v0h0l0,0l0,0l0,0c0,0,0,0,0,0l0,0c0.2,0.1,0.4,0.3,0.4,0.3
	c0.1,0.1,0.2,0.1,0.3,0.1c0.2,0,0.4-0.1,0.6-0.3C860,72.9,859.9,72.5,859.6,72.3"/>
<path id="path3699" class="st1" d="M852.1,67.8l-0.5-0.3c-0.1-0.1-0.2-0.1-0.3-0.1c-0.2,0-0.4,0.1-0.6,0.3c-0.2,0.3-0.1,0.7,0.2,0.9
	l0.2,0.1l0,0h0c0,0,0,0,0,0h0c0.2,0.1,0.3,0.2,0.3,0.2c0.1,0.1,0.2,0.1,0.3,0.1c0.2,0,0.4-0.1,0.6-0.3
	C852.5,68.3,852.4,67.9,852.1,67.8"/>
<path id="path3703" class="st1" d="M861,45.2c-0.1,0-0.2,0-0.3,0.1c0,0,0,0-0.1,0.1l0,0l0,0l-0.4,0.2c-0.3,0.2-0.4,0.5-0.3,0.8
	c0.1,0.2,0.3,0.3,0.5,0.3c0.1,0,0.2,0,0.3-0.1l0.6-0.3c0.3-0.2,0.4-0.5,0.3-0.8C861.4,45.4,861.2,45.2,861,45.2"/>
<path id="path3707" class="st1" d="M844.6,63.2l-0.5-0.3c-0.1-0.1-0.2-0.1-0.3-0.1c-0.2,0-0.4,0.1-0.6,0.3c-0.2,0.3-0.1,0.7,0.2,0.9
	l0.5,0.3c0.1,0.1,0.2,0.1,0.3,0.1c0.2,0,0.4-0.1,0.6-0.3C845,63.8,844.9,63.4,844.6,63.2"/>
<path id="path3711" class="st1" d="M849.5,51.2c-0.1,0-0.2,0-0.3,0.1l-0.6,0.3c-0.3,0.2-0.4,0.5-0.3,0.8c0.1,0.2,0.3,0.3,0.5,0.3
	c0.1,0,0.2,0,0.3-0.1l0.6-0.3c0.3-0.2,0.4-0.5,0.3-0.8C849.9,51.3,849.7,51.2,849.5,51.2"/>
<path id="path3715" class="st1" d="M840.2,60.5l-0.5-0.3c-0.1-0.1-0.2-0.1-0.3-0.1c-0.2,0-0.4,0.1-0.6,0.3c-0.2,0.3-0.1,0.7,0.2,0.9
	c0,0,0.1,0,0.1,0.1l0,0c0,0,0,0,0,0l0,0h0l0.4,0.2c0.1,0.1,0.2,0.1,0.3,0.1c0.2,0,0.4-0.1,0.6-0.3C840.6,61.1,840.5,60.7,840.2,60.5
	"/>
<path id="path3719" class="st1" d="M836.5,58.7l-0.5-0.3c-0.1-0.1-0.2-0.1-0.3-0.1c-0.2,0-0.4,0.1-0.6,0.3c-0.2,0.3-0.1,0.7,0.2,0.9
	c0,0,0.1,0,0.1,0.1l0,0c0,0,0,0,0,0l0,0c0,0,0,0,0,0l0.4,0.2c0.1,0.1,0.2,0.1,0.3,0.1c0.2,0,0.4-0.1,0.6-0.3
	C836.9,59.2,836.8,58.8,836.5,58.7"/>
<path id="path3723" class="st1" d="M842,55c-0.1,0-0.2,0-0.3,0.1l-0.4,0.2v0l0,0c-0.1,0-0.2,0.1-0.2,0.1c-0.3,0.2-0.4,0.5-0.3,0.8
	c0.1,0.2,0.3,0.3,0.5,0.3c0.1,0,0.2,0,0.3-0.1l0.6-0.3c0.3-0.2,0.4-0.5,0.3-0.8C842.4,55.2,842.2,55,842,55"/>
<path id="path3727" class="st1" d="M838.6,56.8c-0.1,0-0.2,0-0.3,0.1l-0.4,0.2l0,0l0,0c-0.1,0-0.2,0.1-0.2,0.1
	c-0.3,0.2-0.4,0.5-0.3,0.8c0.1,0.2,0.3,0.3,0.5,0.3c0.1,0,0.2,0,0.3-0.1l0.6-0.3c0.3-0.2,0.4-0.5,0.3-0.8
	C839.1,56.9,838.9,56.8,838.6,56.8"/>
<path id="path3731" class="st1" d="M848.4,65.5l-0.5-0.3c-0.1-0.1-0.2-0.1-0.3-0.1c-0.2,0-0.4,0.1-0.6,0.3c-0.2,0.3-0.1,0.7,0.2,0.9
	l0.1,0l0,0l0,0l0,0l0,0c0,0,0,0,0,0v0c0,0,0,0,0,0c0.1,0.1,0.5,0.3,0.5,0.3c0.1,0.1,0.2,0.1,0.3,0.1c0.2,0,0.4-0.1,0.6-0.3
	C848.8,66.1,848.7,65.7,848.4,65.5"/>
<path id="path3735" class="st1" d="M845.8,53.1c-0.1,0-0.2,0-0.3,0.1c0,0-0.1,0.1-0.2,0.1l0,0c0,0,0,0,0,0l-0.3,0.2
	c-0.3,0.2-0.4,0.5-0.3,0.8c0.1,0.2,0.3,0.3,0.5,0.3c0.1,0,0.2,0,0.3-0.1l0.6-0.3c0.3-0.2,0.4-0.5,0.3-0.8
	C846.2,53.2,846,53.1,845.8,53.1"/>
<path id="path3739" class="st1" d="M864.9,43.2c-0.1,0-0.2,0-0.3,0.1l-0.6,0.3c-0.3,0.2-0.4,0.5-0.3,0.8c0.1,0.2,0.3,0.3,0.5,0.3
	c0.1,0,0.2,0,0.3-0.1l0.6-0.3c0.3-0.2,0.4-0.5,0.3-0.8C865.3,43.3,865.1,43.2,864.9,43.2"/>
<path id="path3743" class="st1" d="M876.7,37.7C876.7,37.7,876.7,37.7,876.7,37.7C876.7,37.7,876.7,37.7,876.7,37.7L876.7,37.7
	L876.7,37.7L876.7,37.7L876.7,37.7l-0.6,0c-0.1,0-0.2,0-0.2,0c-0.1,0-0.1,0-0.2,0l-0.1,0c-0.2,0-0.4,0.1-0.5,0.3l-0.3,0.5
	c-0.2,0.3-0.1,0.7,0.2,0.9c0,0,0,0,0,0c0.3,0.2,0.7,0.1,0.9-0.2c0,0,0.1-0.1,0.1-0.2L876.7,37.7C876.7,37.7,876.7,37.7,876.7,37.7"
	/>
<path id="path3747" class="st1" d="M872.6,39.2c-0.1,0-0.2,0-0.3,0.1l-0.6,0.3c-0.3,0.2-0.4,0.5-0.3,0.8c0.1,0.2,0.3,0.3,0.5,0.3
	c0.1,0,0.2,0,0.3-0.1l0.6-0.3c0.3-0.2,0.4-0.5,0.3-0.8C873.1,39.3,872.9,39.2,872.6,39.2"/>
<path id="path3751" class="st1" d="M871,79.2l-0.5-0.3c-0.1-0.1-0.2-0.1-0.3-0.1c-0.2,0-0.4,0.1-0.6,0.3c-0.2,0.3-0.1,0.7,0.2,0.9
	l0.5,0.3c0.1,0.1,0.2,0.1,0.3,0.1c0.2,0,0.4-0.1,0.6-0.3C871.4,79.7,871.3,79.3,871,79.2"/>
<path id="path3755" class="st1" d="M873.5,81.1l-0.5-0.3c-0.1-0.1-0.2-0.1-0.3-0.1c-0.2,0-0.4,0.1-0.6,0.3c-0.2,0.3-0.1,0.7,0.2,0.9
	l0.5,0.3c0.1,0.1,0.2,0.1,0.3,0.1c0.2,0,0.4-0.1,0.6-0.3C873.9,81.7,873.8,81.3,873.5,81.1"/>
<path id="path3759" class="st1" d="M867.2,76.9l-0.5-0.3c-0.1-0.1-0.2-0.1-0.3-0.1c-0.2,0-0.4,0.1-0.6,0.3c-0.2,0.3-0.1,0.7,0.2,0.9
	l0.5,0.3c0.1,0.1,0.2,0.1,0.3,0.1c0.2,0,0.4-0.1,0.6-0.3C867.6,77.5,867.5,77.1,867.2,76.9"/>
<path id="path3763" class="st1" d="M868.8,41.2c-0.1,0-0.2,0-0.3,0.1l-0.6,0.3c-0.3,0.2-0.4,0.5-0.3,0.8c0.1,0.2,0.3,0.3,0.5,0.3
	c0.1,0,0.2,0,0.3-0.1l0.6-0.3c0.3-0.2,0.4-0.5,0.3-0.8C869.2,41.3,869,41.2,868.8,41.2"/>
<path id="path3767" class="st1" d="M873.7,56.8c-0.1,0.1-0.1,0.2-0.1,0.3l0,0.5c0,0.1,0,0.1,0,0.1c0,0.3,0.2,0.6,0.6,0.7
	c0.2,0,0.4-0.1,0.6-0.3c0.1-0.1,0.1-0.2,0.1-0.3l0-0.6c0-0.3-0.2-0.6-0.6-0.7C874.1,56.5,873.9,56.7,873.7,56.8"/>
<path id="path3771" class="st1" d="M873.5,61.1c-0.1,0.1-0.1,0.2-0.1,0.3l0,0.6c0,0.3,0.2,0.6,0.6,0.7c0.2,0,0.4-0.1,0.6-0.3
	c0.1-0.1,0.1-0.2,0.1-0.3l0-0.6c0-0.3-0.2-0.6-0.6-0.7C873.8,60.8,873.6,60.9,873.5,61.1"/>
<path id="path3775" class="st1" d="M874,52.7c-0.1,0.1-0.1,0.2-0.1,0.3c0,0,0,0.1,0,0.1v0v0l0,0.5c0,0.3,0.2,0.6,0.6,0.7
	c0.2,0,0.4-0.1,0.6-0.3c0.1-0.1,0.1-0.2,0.1-0.3l0-0.6c0-0.3-0.2-0.6-0.6-0.7C874.3,52.4,874.1,52.5,874,52.7"/>
<path id="path3779" class="st1" d="M873.3,65.3c-0.1,0.1-0.1,0.2-0.1,0.3l0,0.6c0,0.3,0.2,0.6,0.6,0.7c0.2,0,0.4-0.1,0.6-0.3
	c0.1-0.1,0.1-0.2,0.1-0.3l0-0.6c0-0.3-0.2-0.6-0.6-0.7C873.6,65,873.4,65.1,873.3,65.3"/>
<path id="path3783" class="st1" d="M872.8,73.5c-0.1,0.1-0.1,0.2-0.1,0.3l0,0.4l0,0v0c0,0.1,0,0.2,0,0.2c0,0.3,0.2,0.6,0.6,0.7
	c0.2,0,0.4-0.1,0.6-0.3c0.1-0.1,0.1-0.2,0.1-0.3l0-0.6c0-0.3-0.2-0.6-0.6-0.7C873.2,73.2,872.9,73.3,872.8,73.5"/>
<path id="path3787" class="st1" d="M872.7,77.8c-0.1,0.1-0.1,0.2-0.1,0.3l0,0.4l0,0v0c0,0.1,0,0.2,0,0.2c0,0.3,0.2,0.6,0.6,0.7
	c0.2,0,0.4-0.1,0.6-0.3c0.1-0.1,0.1-0.2,0.1-0.3l0-0.6c0-0.3-0.2-0.6-0.6-0.7C873,77.5,872.8,77.6,872.7,77.8"/>
<path id="path3791" class="st1" d="M873,69.5c-0.1,0.1-0.1,0.2-0.1,0.3c0,0,0,0.1,0,0.3l0,0c0,0,0,0,0,0l0,0.4
	c0,0.3,0.2,0.6,0.6,0.7c0.2,0,0.4-0.1,0.6-0.3c0.1-0.1,0.1-0.2,0.1-0.3l0-0.6c0-0.3-0.2-0.6-0.6-0.7C873.4,69.2,873.2,69.3,873,69.5
	"/>
<path id="path3795" class="st1" d="M874.2,48.5c-0.1,0.1-0.1,0.2-0.1,0.3l0,0.6c0,0.3,0.2,0.6,0.6,0.7c0.2,0,0.4-0.1,0.6-0.3
	c0.1-0.1,0.1-0.2,0.1-0.3l0-0.6c0-0.3-0.2-0.6-0.6-0.7C874.5,48.2,874.3,48.4,874.2,48.5"/>
<path id="path3799" class="st1" d="M874.6,40.6c-0.1,0.1-0.1,0.2-0.1,0.3l0,0.6c0,0.3,0.2,0.6,0.6,0.7c0.2,0,0.4-0.1,0.6-0.3
	c0.1-0.1,0.1-0.2,0.1-0.3l0-0.6c0-0.3-0.2-0.6-0.6-0.7C875,40.3,874.7,40.4,874.6,40.6"/>
<path id="path3803" class="st1" d="M874.4,44.5c-0.1,0.1-0.1,0.2-0.1,0.3l0,0.6c0,0.3,0.2,0.6,0.6,0.7c0.2,0,0.4-0.1,0.6-0.3
	c0.1-0.1,0.1-0.2,0.1-0.3l0-0.6c0-0.3-0.2-0.6-0.6-0.7C874.7,44.2,874.5,44.3,874.4,44.5"/>
<path id="path3807" class="st1" d="M874.2,82.8l-0.9-1l28.9-26.6l0.9,1L874.2,82.8z"/>
<path id="path3811" class="st1" d="M843.5,90.2l-0.3-1.3l30.4-7.3l0.3,1.3L843.5,90.2z"/>
<path id="path3815" class="st1" d="M882.3,90.3l-9-7.5l0.9-1l9,7.5L882.3,90.3z"/>
<path id="path3819" class="st1" d="M875.9,37.9l-32.6-16l0.6-1.2l32.6,16L875.9,37.9z"/>
<path id="path3823" class="st1" d="M835.4,58.9l-1.3-0.3l8.9-37.5l1.3,0.3L835.4,58.9z"/>
<path id="path3827" class="st1" d="M876.8,37.5l-1.2-0.5l6.9-15.8l1.2,0.5L876.8,37.5z"/>
<path id="path3831" class="st1" d="M902.3,56.2l-26.4-18.5l0.8-1.1L903,55.1L902.3,56.2z"/>
<path id="path3835" class="st1" d="M834.6,59.4l-11-3.4l0.4-1.3l11,3.4L834.6,59.4z"/>
<path id="path3839" class="st1" d="M842.7,89.8l-8.6-30.9l1.3-0.4l8.6,30.9L842.7,89.8z"/>
<path id="path3843" class="st1" d="M683.6,106.2c-3.4-3.5-7.7-5.3-12.8-5.3c-3.7,0-6.9,0.9-9.7,2.8l1.1,0.9c0.2,0.2,0.4,0.4,0.7,0.7
	c2.3-1.4,4.9-2.2,7.9-2.2c4.4,0,8.1,1.6,10.9,4.7c2.9,3.1,4.3,6.9,4.3,11.4c0,4.5-1.4,8.3-4.3,11.4c-2.9,3.1-6.5,4.6-10.9,4.6
	c-4.4,0-8.1-1.5-11-4.6c-2.9-3.1-4.4-6.9-4.4-11.4c0-2.9,0.6-5.5,1.8-7.8l-2.2-1.3c-1.5,2.7-2.3,5.7-2.3,9.1c0,5.1,1.7,9.5,5.2,13
	c3.4,3.6,7.7,5.3,12.8,5.3c5.1,0,9.3-1.8,12.8-5.3c3.4-3.5,5.2-7.9,5.2-13C688.7,114.1,687,109.7,683.6,106.2"/>
<path id="path3847" class="st1" d="M597.1,103.6c-2.1-1.6-4.7-2.4-7.8-2.4c-3.1,0-6,0.1-8.7,0.4V137h2.5v-33.4
	c2-0.1,3.7-0.2,5.2-0.2c2.8,0,5,0.6,6.7,1.9c1.7,1.2,2.6,3.2,2.6,6s-1.2,5-3.6,6.7c-0.8,0.6-2.2,1.2-3.2,1.6v1.9
	c1.5-0.5,3.9-1.4,5.2-2.4c2.9-2.1,4.3-4.8,4.3-8.1C600.3,107.7,599.2,105.3,597.1,103.6"/>
<path id="path3851" class="st1" d="M705.6,133c0,5.3-2.6,9.9-7.9,13.8l1.2,1.6c1.9-1.4,3.5-2.7,4.7-3.9c1.2-1.2,2.3-3,3.2-5.3
	c0.9-2.3,1.4-4.9,1.4-7.8v-30h-2.5V133z"/>
<path id="path3855" class="st1" d="M730.1,118.7h12.7v-2.1h-12.7v-13h14.1v-2.2h-16.6V137h17.2v-2.3h-14.7V118.7z"/>
<path id="path3859" class="st1" d="M777.2,135.3c-4.2,0-7.9-1.6-11.1-4.7c-3.2-3.1-4.8-7-4.8-11.4c0-4.5,1.4-8.3,4.1-11.4
	c2.8-3.1,6.2-4.6,10.2-4.6c4.1,0,8,0.6,11.8,1.8l0.7-2.1c-3.9-1.3-8-1.9-12.1-1.9c-5.1,0-9.3,1.8-12.5,5.3
	c-3.2,3.5-4.9,7.9-4.9,13.1c0,5.2,1.9,9.6,5.6,13.1c3.7,3.5,8,5.3,12.9,5.3c4.9,0,8.7-0.8,11.4-2.3l-0.8-1.8
	C784.9,134.7,781.4,135.3,777.2,135.3"/>
<path id="path3863" class="st1" d="M800.8,103.7h12.1V137h2.5v-33.4h12.1v-2.2h-26.6V103.7z"/>
<path id="path3867" class="st1" d="M629.4,121.7c1.6-1.1,3-2.6,4.2-4.4c1.2-1.8,1.9-3.8,1.9-6c0-3.2-1.1-5.7-3.3-7.4
	c-2.2-1.7-5-2.6-8.3-2.6c-2.2,0-4.9,0.1-8,0.4V137h2.5v-33.4c2-0.1,3.7-0.2,5.2-0.2c2.7,0,5,0.7,6.7,2c1.7,1.3,2.6,3.2,2.6,5.8
	s-0.8,4.7-2.5,6.6c-1.6,1.9-2.5,2.6-3.9,2.6l-0.4,0.6l1.1,1.8c0,0,7.1,9.6,8.3,10.9c1.3,1.4,2.5,2.3,3.8,2.9c1.3,0.6,2.9,0.9,5,0.9
	l0.1-1.7c-2.5-0.3-4.7-1.5-6.8-3.7C636.4,130.9,633.7,127.5,629.4,121.7"/>
<path id="path3871" class="st1" d="M473.7,106.8c-3.4-3.6-7.7-5.3-12.8-5.3c-3.7,0-6.9,0.9-9.7,2.8l1.1,0.9c0.2,0.2,0.4,0.4,0.7,0.7
	c2.3-1.4,4.9-2.2,7.9-2.2c4.4,0,8.1,1.6,10.9,4.7c2.9,3.1,4.3,6.9,4.3,11.4c0,4.5-1.4,8.3-4.3,11.4c-2.9,3.1-6.5,4.6-10.9,4.6
	c-4.4,0-8.1-1.5-11-4.6c-2.9-3.1-4.4-6.9-4.4-11.4c0-2.9,0.6-5.5,1.8-7.8l-2.2-1.3c-1.5,2.7-2.3,5.7-2.3,9.1c0,5.1,1.7,9.5,5.2,13
	c3.4,3.6,7.7,5.3,12.8,5.3c5.1,0,9.3-1.8,12.8-5.3c3.4-3.5,5.2-7.9,5.2-13C478.9,114.7,477.2,110.4,473.7,106.8"/>
<path id="path3875" class="st1" d="M505.4,121.3c1.6-1.1,3-2.6,4.2-4.4c1.2-1.8,1.9-3.8,1.9-6c0-3.2-1.1-5.7-3.3-7.4
	c-2.2-1.7-5-2.6-8.3-2.6c-2.2,0-4.9,0.1-8,0.4v35.5h2.5v-33.4c2-0.1,3.7-0.2,5.2-0.2c2.7,0,5,0.7,6.7,2c1.7,1.3,2.6,3.2,2.6,5.8
	s-0.8,4.7-2.5,6.6c-1.6,1.9-2.5,2.6-3.9,2.6l-0.4,0.6l1.1,1.8c0,0,7,9.6,8.3,10.9c1.3,1.4,2.5,2.3,3.8,2.9c1.3,0.6,2.9,0.9,5,0.9
	l0.1-1.7c-2.5-0.3-4.7-1.5-6.8-3.7C512.5,130.6,509.8,127.1,505.4,121.3"/>
<path id="path3879" class="st1" d="M334.2,100.9h-1.5l-12.3,26.3c-0.7,1.5-1.2,2.6-1.5,3.4c0-0.1-0.4-1.3-1.3-3.5l-11.1-26.3H305
	l-5.8,35.8h2.5l4.1-26.9c0.1-0.4,0.1-0.9,0.2-1.5c0.1-0.6,0.1-1.1,0.2-1.5c0.1-0.4,0.1-0.6,0.1-0.6c0.4,1.3,0.9,2.5,1.3,3.5
	l10.4,25.2h1.5l11.7-25.1l1.6-3.6c0,0.6,0.1,1.8,0.4,3.6l3.9,27.1h2.6L334.2,100.9z"/>
<path id="path3883" class="st1" d="M358.6,118.4h12.7v-2.1h-12.7v-13h14.1v-2.2h-16.6v35.6h17.2v-2.3h-14.7V118.4z"/>
<path id="path3887" class="st1" d="M423.1,100.9l-12.3,26.3c-0.7,1.5-1.2,2.6-1.5,3.4c0-0.1-0.4-1.3-1.3-3.5l-11.1-26.3h-1.5
	l-5.8,35.8h2.5l4.1-26.9c0.1-0.4,0.1-0.9,0.2-1.5c0.1-0.6,0.1-1.1,0.2-1.5c0.1-0.4,0.1-0.6,0.1-0.6c0.4,1.3,0.9,2.5,1.3,3.5
	l10.4,25.2h1.5l11.7-25.1l1.6-3.6c0,0.6,0.1,1.8,0.4,3.6l3.9,27.1h2.6l-5.4-35.8H423.1z"/>
<path id="path3891" class="st1" d="M538,136.7h2.5v-12.6l13.4-23h-2.9l-10.4,17.7c-0.7,1.2-1.2,2-1.4,2.5c-0.1-0.1-0.6-1-1.4-2.6
	l-10.4-17.7h-3L538,124V136.7z"/>
<path id="path3895" class="st1" d="M107.7,134.7H91.3v-33.3h-2.5V137h18.9V134.7z"/>
<path id="path3899" class="st1" d="M184.3,137.6c4.9,0,8.7-0.8,11.4-2.3l-0.8-1.8c-2.8,1.2-6.3,1.8-10.5,1.8
	c-4.2,0-7.9-1.6-11.1-4.7c-3.2-3.1-4.8-7-4.8-11.4c0-4.5,1.4-8.3,4.1-11.4c2.8-3.1,6.2-4.6,10.2-4.6c4.1,0,8,0.6,11.8,1.8l0.7-2.1
	c-3.9-1.3-8-1.9-12.1-1.9c-5.1,0-9.3,1.8-12.5,5.3c-3.2,3.5-4.9,7.9-4.9,13.1c0,5.2,1.9,9.6,5.6,13.1
	C175.1,135.8,179.4,137.6,184.3,137.6"/>
<path id="path3903" class="st1" d="M271.8,134.7h-16.4v-33.3h-2.5V137h18.9V134.7z"/>
<path id="path3907" class="st1" d="M215.7,124.7l0.9-2.1l5.5-13.2c0.4-1.1,0.9-2.5,1.5-4.1c0.3,0.7,0.8,2.1,1.6,4.2l5.4,13.1l6,14.5
	h2.8l-15-35.8H223L208.1,137h2.6L215.7,124.7z"/>
<path id="path3911" class="st1" d="M230.7,120.8h-8l-0.8,2.1h9.7"/>
<path id="path3915" class="st1" d="M148.6,106.2c-3.4-3.5-7.7-5.3-12.8-5.3c-3.7,0-6.9,0.9-9.7,2.8l1.1,0.9c0.2,0.2,0.4,0.4,0.7,0.7
	c2.3-1.4,4.9-2.2,7.9-2.2c4.4,0,8.1,1.6,10.9,4.7c2.9,3.1,4.3,6.9,4.3,11.4c0,4.5-1.4,8.3-4.3,11.4c-2.9,3.1-6.5,4.6-10.9,4.6
	c-4.4,0-8.1-1.5-11-4.6c-2.9-3.1-4.4-6.9-4.4-11.4c0-2.9,0.6-5.5,1.8-7.8l-2.2-1.3c-1.5,2.7-2.3,5.7-2.3,9.1c0,5.1,1.7,9.5,5.2,13
	c3.4,3.6,7.7,5.3,12.8,5.3c5.1,0,9.3-1.8,12.8-5.3c3.4-3.5,5.2-7.9,5.2-13C153.8,114.1,152.1,109.7,148.6,106.2"/>
<path id="path3919" d="M842.8,110.9c-0.4,0.5-0.6,1.4-0.6,2.4c0,1.5,0.4,2.7,1.1,3.6c0.8,1,1.7,1.4,2.8,1.4c0.7,0,1.3-0.3,1.7-0.9
	c0.5-0.6,0.7-1.4,0.7-2.6c0-1.4-0.4-2.6-1.2-3.5c-0.8-0.9-1.7-1.4-2.8-1.4C843.8,110.1,843.2,110.4,842.8,110.9 M850.2,133.6
	c1-1,1.5-2.1,1.5-3.5c0-1-0.3-1.8-1-2.4c-0.6-0.6-1.4-0.9-2.3-1.2c-0.9-0.2-2.1-0.4-3.6-0.6c-0.5-0.1-1.1-0.2-1.9-0.3
	c-0.7,0.6-1.3,1.2-1.7,1.8c-0.4,0.7-0.6,1.5-0.6,2.6c0,1.6,0.5,2.8,1.4,3.7c1,0.9,2.2,1.3,3.8,1.3
	C847.7,135.1,849.1,134.6,850.2,133.6 M850.7,124.4c0.9,0.2,1.7,0.7,2.4,1.3c0.7,0.6,1.1,1.5,1.1,2.7c0,1.3-0.4,2.5-1.3,3.7
	c-0.9,1.2-2.1,2.2-3.7,3c-1.5,0.8-3.2,1.2-4.9,1.2c-1.9,0-3.4-0.4-4.6-1.3s-1.8-2-1.8-3.4c0-2,1.5-4,4.4-6.1
	c-1.8-0.5-2.7-1.4-2.7-2.8c0-0.7,0.3-1.4,0.8-2.1c0.5-0.7,1.2-1.4,2.1-1.9c-1.1-0.4-1.9-1-2.5-1.8c-0.6-0.8-0.9-1.7-0.9-2.6
	c0-1.4,0.6-2.5,1.9-3.4c1.3-0.9,2.7-1.3,4.5-1.3c1.8,0,3.2,0.4,4.2,1.3c0.7-0.4,1.4-0.8,2.1-1c0.7-0.2,1.4-0.3,2.2-0.3
	c0.1,0,0.1,0.1,0.2,0.3c0.1,0.2,0.1,0.4,0.1,0.7c0,0.3,0,0.7-0.1,1.1c-0.1,0.4-0.2,0.5-0.3,0.5c-1-0.4-1.9-0.6-2.7-0.6
	c-0.2,0-0.4,0-0.8,0.1c0.7,0.8,1.1,1.7,1.1,2.8c0,0.9-0.3,1.8-0.8,2.5c-0.6,0.8-1.3,1.4-2.3,1.8c-1,0.4-2,0.7-3.2,0.7
	c-0.8,0-1.5-0.1-2.1-0.3c-0.8,0.6-1.2,1.4-1.2,2.3c0,0.8,0.4,1.4,1.2,1.7c0.8,0.3,2,0.6,3.5,0.9
	C848.4,123.9,849.7,124.2,850.7,124.4"/>
<path id="path3923" d="M860.9,111.1c-0.7,0.6-1.2,1.5-1.4,2.6l6.8-0.2c-0.1-1.1-0.3-1.9-0.8-2.5c-0.5-0.6-1.2-0.9-2-0.9
	C862.4,110.2,861.5,110.5,860.9,111.1 M869.4,122.7c0.1,0,0.2,0,0.2,0.1c0.1,0.1,0.1,0.2,0,0.2c-0.9,0.9-1.9,1.5-2.8,1.9
	c-1,0.4-2,0.6-3.1,0.6c-1.6,0-3-0.3-4.1-1.1c-1.1-0.7-2-1.6-2.6-2.8c-0.6-1.2-0.9-2.4-0.9-3.8c0-1.6,0.4-3,1.1-4.3
	c0.8-1.3,1.8-2.3,3.1-3.1c1.3-0.8,2.8-1.1,4.4-1.1c1.5,0,2.6,0.3,3.5,1.1c0.8,0.7,1.2,1.7,1.2,2.9c0,0.7-0.1,1-0.4,1l-9.7,0
	c-0.1,0.5-0.2,1.2-0.2,1.9c0,2.3,0.5,4.1,1.6,5.5c1.1,1.4,2.6,2.1,4.5,2.1C866.9,123.9,868.2,123.5,869.4,122.7
	C869.4,122.7,869.4,122.7,869.4,122.7z"/>
<path id="path3927" d="M884.4,123.3c0.7-1,1.1-2.6,1.1-4.6c0-1.7-0.3-3.2-0.8-4.5c-0.5-1.3-1.2-2.3-2.1-3c-0.9-0.7-1.9-1-3-1
	c-1.3,0-2.3,0.5-3,1.5c-0.7,1-1.1,2.5-1.1,4.4c0,1.7,0.3,3.2,0.8,4.5c0.5,1.4,1.2,2.4,2.1,3.2c0.9,0.8,1.9,1.2,3,1.2
	C882.7,124.8,883.7,124.3,884.4,123.3 M876.1,124.4c-1.2-0.8-2.1-1.8-2.8-3.1c-0.6-1.3-1-2.7-1-4.2c0-1.7,0.4-3.2,1.3-4.4
	c0.8-1.2,1.9-2.1,3.3-2.7c1.3-0.6,2.7-0.9,4-0.9c1.6,0,3,0.4,4.1,1.1c1.2,0.8,2.1,1.8,2.7,3c0.6,1.3,1,2.6,1,4c0,1.6-0.4,3-1.2,4.3
	c-0.8,1.2-1.8,2.2-3.1,2.9c-1.3,0.7-2.7,1-4.2,1C878.7,125.6,877.3,125.2,876.1,124.4"/>
</svg>
